<svg xmlns="http://www.w3.org/2000/svg" viewBox="0 0 22 22" width="24" height="24" xmlns:v="https://vecta.io/nano"><defs><linearGradient id="A" gradientUnits="userSpaceOnUse"><stop stop-color="#bc9cff"/><stop offset="1" stop-color="#8ba4f9"/></linearGradient></defs><path fill="url(#A)" d="M11 5.609a5.24 5.24 0 0 0-2.719.75c-.812.469-1.469 1.125-1.969 1.969-.469.813-.703 1.703-.703 2.672a5.51 5.51 0 0 0 .703 2.719 5.93 5.93 0 0 0 1.969 1.969 5.51 5.51 0 0 0 2.719.703c.969 0 1.859-.234 2.672-.703.844-.5 1.5-1.156 1.969-1.969a5.24 5.24 0 0 0 .75-2.719 5 5 0 0 0-.75-2.672 4.97 4.97 0 0 0-1.969-1.969A5 5 0 0 0 11 5.609zm0 8.906c-.969 0-1.797-.344-2.484-1.031S7.484 11.969 7.484 11s.344-1.797 1.031-2.484S10.031 7.484 11 7.484s1.797.344 2.484 1.031 1.031 1.516 1.031 2.484-.344 1.797-1.031 2.484-1.516 1.031-2.484 1.031zm6.891-9.141c-.031.344-.172.641-.422.891a1.07 1.07 0 0 1-.844.375c-.344 0-.641-.125-.891-.375s-.375-.547-.375-.891.125-.641.375-.891.547-.375.891-.375.641.125.891.375.375.547.375.891zm3.563 1.266c-.062-.906-.203-1.687-.422-2.344a5.13 5.13 0 0 0-1.312-2.016A5.13 5.13 0 0 0 17.703.969C17.047.75 16.266.625 15.359.594 14.484.531 13.031.5 11 .5L6.594.594C5.719.625 4.953.75 4.297.969c-.781.281-1.469.719-2.062 1.313-.562.563-.984 1.234-1.266 2.016C.75 4.953.609 5.734.547 6.641L.5 11l.047 4.406c.063.875.203 1.641.422 2.297a5.84 5.84 0 0 0 1.266 2.063c.594.563 1.281.969 2.063 1.219.656.25 1.422.391 2.297.422L11 21.5l4.359-.094c.906-.031 1.688-.156 2.344-.375.781-.281 1.453-.703 2.016-1.266.594-.594 1.031-1.281 1.312-2.062.219-.656.344-1.422.375-2.297L21.5 11l-.047-4.359zm-2.25 10.547c-.375.938-1.047 1.609-2.016 2.016-.5.188-1.344.313-2.531.375l-2.906.047h-1.5c-1.25 0-2.219-.016-2.906-.047-1.156-.062-2-.187-2.531-.375-.937-.375-1.609-1.047-2.016-2.016-.187-.531-.312-1.375-.375-2.531l-.047-2.906v-1.5l.047-2.906c.063-1.187.188-2.031.375-2.531a3.38 3.38 0 0 1 2.016-2.016c.531-.187 1.375-.313 2.531-.375l2.906-.047h1.5l2.906.047c1.188.062 2.031.188 2.531.375a3.38 3.38 0 0 1 2.016 2.016c.188.5.313 1.344.375 2.531l.047 2.906v1.5l-.047 2.906c-.062 1.156-.187 2-.375 2.531z"/></svg>