<svg xmlns="http://www.w3.org/2000/svg" width="48" height="48" fill="#1f2041" xmlns:v="https://vecta.io/nano"><path d="M23.999 32.471c-.776 0-1.412-.635-1.412-1.412 0-5.435-4.447-9.882-9.882-9.882-.776 0-1.412-.635-1.412-1.412s.635-1.412 1.412-1.412a12.7 12.7 0 0 1 12.706 12.706c0 .776-.635 1.412-1.412 1.412zm12.708-12.706c0 .776-.635 1.412-1.412 1.412a9.85 9.85 0 0 0-8.118 4.271c-.388-.988-.847-1.906-1.412-2.753 2.329-2.682 5.753-4.341 9.529-4.341.776 0 1.412.635 1.412 1.412zM24 48C10.765 48 0 37.235 0 24S10.765 0 24 0s24 10.765 24 24-10.765 24-24 24zm0-45.176C12.318 2.824 2.824 12.318 2.824 24S12.318 45.177 24 45.177 45.177 35.682 45.177 24 35.682 2.824 24 2.824z" fill-opacity=".25"/></svg>