<svg xmlns="http://www.w3.org/2000/svg" width="106" height="40" fill="none" xmlns:v="https://vecta.io/nano"><path d="M62.335 13.368c.222 0 .402.076.542.227.152.14.227.321.227.543a.74.74 0 0 1-.227.543c-.14.152-.321.227-.542.227h-3.763v10.5a.76.76 0 0 1-.227.56c-.14.14-.321.21-.542.21a.77.77 0 0 1-.543-.21.76.76 0 0 1-.227-.56v-10.5H53.27a.74.74 0 0 1-.543-.227.74.74 0 0 1-.227-.543c0-.222.076-.402.227-.543a.74.74 0 0 1 .543-.227h9.065zm6.573 0c.887 0 1.721.169 2.502.508.793.338 1.482.799 2.065 1.382.595.583 1.062 1.272 1.4 2.065a6.24 6.24 0 0 1 .507 2.503c0 1.038-.222 1.995-.665 2.87a6.49 6.49 0 0 1-1.803 2.205l-.035.035a7.17 7.17 0 0 1-1.838.997c-.665.233-1.377.35-2.135.35-.887 0-1.721-.169-2.502-.508s-1.47-.799-2.065-1.383c-.583-.583-1.044-1.266-1.383-2.047s-.508-1.622-.508-2.52c0-.98.198-1.884.595-2.713.397-.84.939-1.557 1.628-2.152l.07-.07c.012 0 .029-.012.053-.035.56-.467 1.19-.828 1.89-1.085.7-.268 1.441-.402 2.222-.402zm0 11.375a4.91 4.91 0 0 0 1.26-.157 5.58 5.58 0 0 0 1.155-.473l-6.142-7.472a4.93 4.93 0 0 0-.875 1.47c-.21.537-.315 1.108-.315 1.715a4.75 4.75 0 0 0 .385 1.907 5.17 5.17 0 0 0 1.05 1.575A5.17 5.17 0 0 0 67 24.358c.595.257 1.231.385 1.907.385zm3.623-1.592a4.82 4.82 0 0 0 .945-1.505c.233-.572.35-1.178.35-1.82 0-.677-.128-1.312-.385-1.908s-.612-1.114-1.067-1.558a4.8 4.8 0 0 0-1.558-1.067c-.595-.256-1.231-.385-1.907-.385-.467 0-.916.064-1.347.193a4.46 4.46 0 0 0-1.208.525l6.178 7.525zm9.82-2.52a.76.76 0 0 1-.595-.28l-4.498-5.775a.71.71 0 0 1-.157-.543.72.72 0 0 1 .28-.508.66.66 0 0 1 .543-.14.72.72 0 0 1 .507.28l3.92 5.005 3.832-4.917a.71.71 0 0 1 .49-.28.74.74 0 0 1 .56.157.72.72 0 0 1 .28.508c.023.198-.029.379-.157.543l-4.41 5.67a.73.73 0 0 1-.595.28zm4.918 5.635a2.52 2.52 0 0 1-.228-.017c-.093-.012-.204-.041-.332-.088a3.91 3.91 0 0 1-.42-.227c-.14-.105-.28-.245-.42-.42l-3.517-4.533-3.832 4.935a.72.72 0 0 1-.508.28c-.198.023-.379-.029-.542-.157a.71.71 0 0 1-.28-.49.74.74 0 0 1 .157-.56l4.41-5.67a.68.68 0 0 1 .578-.28c.257 0 .461.093.612.28l4.095 5.25c.058.082.111.134.157.157l.105.052c.198 0 .362.07.49.21.14.128.216.292.228.49.023.21-.035.391-.175.542a.75.75 0 0 1-.525.245h-.052zm4.465 0a.76.76 0 0 1-.788-.787V14.103a.74.74 0 0 1 .228-.543.76.76 0 0 1 .56-.227.74.74 0 0 1 .542.227.74.74 0 0 1 .228.543v11.375a.76.76 0 0 1-.228.56.74.74 0 0 1-.542.227zm13.204-.035c-.257 0-.455-.099-.595-.297l-7.298-9.59v9.135a.74.74 0 0 1-.227.542c-.14.14-.315.21-.525.21a.75.75 0 0 1-.525-.21.74.74 0 0 1-.228-.542V14.121c0-.163.047-.309.14-.437s.222-.216.385-.262a.68.68 0 0 1 .455-.018.79.79 0 0 1 .385.262l7.28 9.608v-9.152a.75.75 0 0 1 .21-.525.74.74 0 0 1 .543-.227c.21 0 .385.076.525.227.151.152.227.327.227.525V25.48a.73.73 0 0 1-.14.438.8.8 0 0 1-.367.28c-.117.023-.199.035-.245.035z" fill="#1f2041"/><path d="M20 27.059a1.18 1.18 0 0 1-1.176-1.177c0-4.529-3.706-8.235-8.235-8.235a1.18 1.18 0 0 1-1.176-1.176 1.18 1.18 0 0 1 1.176-1.177c5.853 0 10.588 4.735 10.588 10.588A1.18 1.18 0 0 1 20 27.059z" fill="url(#A)"/><path d="M30.588 16.47a1.18 1.18 0 0 1-1.177 1.176 8.21 8.21 0 0 0-6.765 3.559c-.324-.823-.706-1.588-1.177-2.294a10.49 10.49 0 0 1 7.941-3.618 1.18 1.18 0 0 1 1.177 1.177z" fill="url(#B)"/><path d="M20 40C8.971 40 0 31.029 0 20S8.971 0 20 0s20 8.971 20 20-8.971 20-20 20zm0-37.647C10.265 2.353 2.353 10.265 2.353 20S10.265 37.647 20 37.647 37.647 29.735 37.647 20 29.735 2.353 20 2.353z" fill="url(#C)"/><defs><linearGradient id="A" x1="15.295" y1="15.294" x2="15.295" y2="27.059" gradientUnits="userSpaceOnUse"><stop stop-color="#bc9cff"/><stop offset="1" stop-color="#8ba4f9"/></linearGradient><linearGradient id="B" x1="26.03" y1="15.294" x2="26.03" y2="21.206" gradientUnits="userSpaceOnUse"><stop stop-color="#6fcf97"/><stop offset="1" stop-color="#66d2ea"/></linearGradient><linearGradient id="C" x1="20" y1="0" x2="20" y2="40" gradientUnits="userSpaceOnUse"><stop stop-color="#bc9cff"/><stop offset="1" stop-color="#8ba4f9"/></linearGradient></defs></svg>